<svg xmlns="http://www.w3.org/2000/svg" viewBox="1.2 2.6 15.6 12.2" width="200" height="156" role="img" aria-label="Momo dumpling logo">
  <defs>
    <linearGradient id="dough" x1="0" y1="0" x2="0" y2="1">
      <stop offset="0" stop-color="#FBE7C0"/>
      <stop offset="1" stop-color="#E7BE72"/>
    </linearGradient>
  </defs>
  <!-- Body: the exact menu-bar silhouette, y-flipped from AppKit, filled warm dough. -->
  <path d="M2.6 14 L15.4 14 C16.6 10.2 14.8 7 11.6 6 C12.1 4.4 10.9 3.9 9.9 4.7 C9.4 3.1 8.6 3.1 8.1 4.7 C7.1 3.9 5.9 4.4 6.4 6 C3.2 7 1.4 10.2 2.6 14 Z"
        fill="url(#dough)" stroke="#CE9A3E" stroke-width="0.4"/>
  <!-- Pleats -->
  <g fill="none" stroke="#B06E1E" stroke-linecap="round" stroke-width="1.0">
    <path d="M6.6 6.8 Q5 9 4.6 12"/>
    <path d="M8.9 6.4 Q8.2 9.2 8.6 12.4"/>
    <path d="M11.2 6.8 Q12.8 9 13.2 12"/>
  </g>
  <!-- Ruffled topknot notch -->
  <path d="M6.6 5.9 C8 6.7 10 6.7 11.4 5.9" fill="none" stroke="#B06E1E" stroke-linecap="round" stroke-width="0.9"/>
</svg>
